STARTFONT 2.1
COMMENT Sources:
COMMENT -Misc-Fixed-Medium-O-Normal--13-120-75-75-C-70-ISO10646-1 $ucs-fonts: 7x13O.bdf,v 1.9 2002-11-08 20:42:37+00 mgk25 Rel $
COMMENT -windows-dina-bold-i-normal--13-80-96-96-c-70-microsoft-cp1252
FONT -dylex-terminal-Bold-O-Normal--13-120-75-75-C-70-ISO10646-1
SIZE 13 78 78
FONTBOUNDINGBOX 7 13 0 -3
STARTPROPERTIES 23
CHARSET_ENCODING "1"
POINT_SIZE 120
DESTINATION 1
SETWIDTH_NAME "Normal"
FONT_ASCENT 10
FOUNDRY "dylex"
AVERAGE_WIDTH 70
COPYRIGHT "Public domain font.  Share and enjoy."
CHARSET_REGISTRY "ISO10646"
_GBDFED_INFO "Edited with gbdfed 1.6."
FONTNAME_REGISTRY ""
ADD_STYLE_NAME ""
RESOLUTION_X 75
SLANT "O"
WEIGHT_NAME "Bold"
SPACING "C"
PIXEL_SIZE 13
DEFAULT_CHAR 0
FAMILY_NAME "terminal"
X_HEIGHT 6
CAP_HEIGHT 9
RESOLUTION_Y 75
FONT_DESCENT 3
ENDPROPERTIES
CHARS 256
STARTCHAR char0
ENCODING 0
SWIDTH 497 0
DWIDTH 7 0
BBX 7 13 0 -3
BITMAP
00
36
36
00
6C
6C
00
6C
6C
00
D8
D8
00
ENDCHAR
STARTCHAR char1
ENCODING 1
SWIDTH 497 0
DWIDTH 7 0
BBX 7 13 0 -3
BITMAP
00
00
00
10
38
6C
C6
6C
38
10
00
00
00
ENDCHAR
STARTCHAR char2
ENCODING 2
SWIDTH 497 0
DWIDTH 7 0
BBX 7 13 0 -3
BITMAP
FE
FE
FE
FE
FE
FE
FE
FE
FE
FE
FE
FE
FE
ENDCHAR
STARTCHAR char3
ENCODING 3
SWIDTH 497 0
DWIDTH 7 0
BBX 7 13 0 -3
BITMAP
00
50
50
70
50
5E
04
04
04
04
00
00
00
ENDCHAR
STARTCHAR char4
ENCODING 4
SWIDTH 497 0
DWIDTH 7 0
BBX 7 13 0 -3
BITMAP
00
70
40
60
40
4E
08
0C
08
08
00
00
00
ENDCHAR
STARTCHAR char5
ENCODING 5
SWIDTH 497 0
DWIDTH 7 0
BBX 7 13 0 -3
BITMAP
00
30
40
40
40
3E
0A
0C
0A
0A
00
00
00
ENDCHAR
STARTCHAR char6
ENCODING 6
SWIDTH 497 0
DWIDTH 7 0
BBX 7 13 0 -3
BITMAP
00
40
40
40
40
7E
08
0C
08
08
00
00
00
ENDCHAR
STARTCHAR char7
ENCODING 7
SWIDTH 497 0
DWIDTH 7 0
BBX 7 13 0 -3
BITMAP
00
00
38
6C
6C
38
00
00
00
00
00
00
00
ENDCHAR
STARTCHAR char8
ENCODING 8
SWIDTH 497 0
DWIDTH 7 0
BBX 7 13 0 -3
BITMAP
00
00
00
18
18
FE
30
30
00
FC
00
00
00
ENDCHAR
STARTCHAR char9
ENCODING 9
SWIDTH 497 0
DWIDTH 7 0
BBX 7 13 0 -3
BITMAP
00
60
50
50
50
58
08
08
08
0E
00
00
00
ENDCHAR
STARTCHAR char10
ENCODING 10
SWIDTH 497 0
DWIDTH 7 0
BBX 7 13 0 -3
BITMAP
00
50
50
50
20
2E
04
04
04
04
00
00
00
ENDCHAR
STARTCHAR char14
ENCODING 11
SWIDTH 497 0
DWIDTH 7 0
BBX 7 13 0 -3
BITMAP
30
30
30
30
30
F0
F0
00
00
00
00
00
00
ENDCHAR
STARTCHAR char17
ENCODING 12
SWIDTH 497 0
DWIDTH 7 0
BBX 7 13 0 -3
BITMAP
00
00
00
00
00
F0
F0
30
30
30
30
30
30
ENDCHAR
STARTCHAR char16
ENCODING 13
SWIDTH 497 0
DWIDTH 7 0
BBX 7 13 0 -3
BITMAP
00
00
00
00
00
3E
3E
30
30
30
30
30
30
ENDCHAR
STARTCHAR char15
ENCODING 14
SWIDTH 497 0
DWIDTH 7 0
BBX 7 13 0 -3
BITMAP
30
30
30
30
30
3E
3E
00
00
00
00
00
00
ENDCHAR
STARTCHAR char24
ENCODING 15
SWIDTH 497 0
DWIDTH 7 0
BBX 7 13 0 -3
BITMAP
30
30
30
30
30
FE
FE
30
30
30
30
30
30
ENDCHAR
STARTCHAR char16
ENCODING 16
SWIDTH 497 0
DWIDTH 7 0
BBX 7 13 0 -3
BITMAP
FE
FE
00
00
00
00
00
00
00
00
00
00
00
ENDCHAR
STARTCHAR char17
ENCODING 17
SWIDTH 497 0
DWIDTH 7 0
BBX 7 13 0 -3
BITMAP
00
00
00
FE
FE
00
00
00
00
00
00
00
00
ENDCHAR
STARTCHAR char18
ENCODING 18
SWIDTH 497 0
DWIDTH 7 0
BBX 7 13 0 -3
BITMAP
00
00
00
00
00
FE
FE
00
00
00
00
00
00
ENDCHAR
STARTCHAR char19
ENCODING 19
SWIDTH 497 0
DWIDTH 7 0
BBX 7 13 0 -3
BITMAP
00
00
00
00
00
00
00
00
FE
FE
00
00
00
ENDCHAR
STARTCHAR char20
ENCODING 20
SWIDTH 497 0
DWIDTH 7 0
BBX 7 13 0 -3
BITMAP
00
00
00
00
00
00
00
00
00
00
00
FE
FE
ENDCHAR
STARTCHAR char22
ENCODING 21
SWIDTH 497 0
DWIDTH 7 0
BBX 7 13 0 -3
BITMAP
30
30
30
30
30
3E
3E
30
30
30
30
30
30
ENDCHAR
STARTCHAR char20
ENCODING 22
SWIDTH 497 0
DWIDTH 7 0
BBX 7 13 0 -3
BITMAP
30
30
30
30
30
F0
F0
30
30
30
30
30
30
ENDCHAR
STARTCHAR char21
ENCODING 23
SWIDTH 497 0
DWIDTH 7 0
BBX 7 13 0 -3
BITMAP
30
30
30
30
30
FE
FE
00
00
00
00
00
00
ENDCHAR
STARTCHAR char23
ENCODING 24
SWIDTH 497 0
DWIDTH 7 0
BBX 7 13 0 -3
BITMAP
00
00
00
00
00
FE
FE
30
30
30
30
30
30
ENDCHAR
STARTCHAR char19
ENCODING 25
SWIDTH 497 0
DWIDTH 7 0
BBX 7 13 0 -3
BITMAP
30
30
30
30
30
30
30
30
30
30
30
30
30
ENDCHAR
STARTCHAR char27
ENCODING 26
SWIDTH 497 0
DWIDTH 7 0
BBX 7 13 0 -3
BITMAP
00
00
00
1C
70
C0
70
18
00
F8
00
00
00
ENDCHAR
STARTCHAR char29
ENCODING 27
SWIDTH 497 0
DWIDTH 7 0
BBX 7 13 0 -3
BITMAP
00
00
00
60
38
0C
38
E0
00
F8
00
00
00
ENDCHAR
STARTCHAR char28
ENCODING 28
SWIDTH 497 0
DWIDTH 7 0
BBX 7 13 0 -3
BITMAP
00
00
00
00
FE
6C
6C
D8
D8
D8
00
00
00
ENDCHAR
STARTCHAR char26
ENCODING 29
SWIDTH 497 0
DWIDTH 7 0
BBX 7 13 0 -3
BITMAP
00
00
00
00
0C
7E
38
FC
60
00
00
00
00
ENDCHAR
STARTCHAR char30
ENCODING 30
SWIDTH 497 0
DWIDTH 7 0
BBX 7 13 0 -3
BITMAP
00
00
0E
18
30
F8
60
60
C0
F8
00
00
00
ENDCHAR
STARTCHAR char31
ENCODING 31
SWIDTH 497 0
DWIDTH 7 0
BBX 7 13 0 -3
BITMAP
00
00
00
00
00
00
78
00
00
00
00
00
00
ENDCHAR
STARTCHAR char32
ENCODING 32
SWIDTH 497 0
DWIDTH 7 0
BBX 7 13 0 -3
BITMAP
00
00
00
00
00
00
00
00
00
00
00
00
00
ENDCHAR
STARTCHAR char33
ENCODING 33
SWIDTH 497 0
DWIDTH 7 0
BBX 7 13 0 -3
BITMAP
00
00
18
18
18
30
30
00
60
60
00
00
00
ENDCHAR
STARTCHAR char34
ENCODING 34
SWIDTH 497 0
DWIDTH 7 0
BBX 7 13 0 -3
BITMAP
00
6C
6C
6C
00
00
00
00
00
00
00
00
00
ENDCHAR
STARTCHAR char35
ENCODING 35
SWIDTH 497 0
DWIDTH 7 0
BBX 7 13 0 -3
BITMAP
00
00
34
34
7E
34
68
FC
68
68
00
00
00
ENDCHAR
STARTCHAR char36
ENCODING 36
SWIDTH 497 0
DWIDTH 7 0
BBX 7 13 0 -3
BITMAP
00
08
3C
6E
70
30
18
1C
EC
78
20
00
00
ENDCHAR
STARTCHAR char37
ENCODING 37
SWIDTH 497 0
DWIDTH 7 0
BBX 7 13 0 -3
BITMAP
00
00
60
F0
6C
18
30
60
D8
3C
18
00
00
ENDCHAR
STARTCHAR char38
ENCODING 38
SWIDTH 497 0
DWIDTH 7 0
BBX 7 13 0 -3
BITMAP
00
00
18
34
34
38
7C
D8
D8
6C
00
00
00
ENDCHAR
STARTCHAR char39
ENCODING 39
SWIDTH 497 0
DWIDTH 7 0
BBX 7 13 0 -3
BITMAP
00
30
30
30
00
00
00
00
00
00
00
00
00
ENDCHAR
STARTCHAR char40
ENCODING 40
SWIDTH 497 0
DWIDTH 7 0
BBX 7 13 0 -3
BITMAP
00
0C
18
30
30
60
60
60
60
30
30
18
00
ENDCHAR
STARTCHAR char41
ENCODING 41
SWIDTH 497 0
DWIDTH 7 0
BBX 7 13 0 -3
BITMAP
00
60
30
30
18
18
18
18
30
30
60
C0
00
ENDCHAR
STARTCHAR char42
ENCODING 42
SWIDTH 497 0
DWIDTH 7 0
BBX 7 13 0 -3
BITMAP
00
00
00
00
6C
30
FC
30
D8
00
00
00
00
ENDCHAR
STARTCHAR char43
ENCODING 43
SWIDTH 497 0
DWIDTH 7 0
BBX 7 13 0 -3
BITMAP
00
00
00
00
18
18
7C
30
30
00
00
00
00
ENDCHAR
STARTCHAR char44
ENCODING 44
SWIDTH 497 0
DWIDTH 7 0
BBX 7 13 0 -3
BITMAP
00
00
00
00
00
00
00
00
18
18
30
60
00
ENDCHAR
STARTCHAR char45
ENCODING 45
SWIDTH 497 0
DWIDTH 7 0
BBX 7 13 0 -3
BITMAP
00
00
00
00
00
00
7C
00
00
00
00
00
00
ENDCHAR
STARTCHAR char46
ENCODING 46
SWIDTH 497 0
DWIDTH 7 0
BBX 7 13 0 -3
BITMAP
00
00
00
00
00
00
00
00
30
30
00
00
00
ENDCHAR
STARTCHAR char47
ENCODING 47
SWIDTH 497 0
DWIDTH 7 0
BBX 7 13 0 -3
BITMAP
00
06
0C
0C
18
18
30
30
60
60
C0
00
00
ENDCHAR
STARTCHAR char48
ENCODING 48
SWIDTH 497 0
DWIDTH 7 0
BBX 7 13 0 -3
BITMAP
00
00
3C
66
6E
D6
D6
EC
CC
70
00
00
00
ENDCHAR
STARTCHAR char49
ENCODING 49
SWIDTH 497 0
DWIDTH 7 0
BBX 7 13 0 -3
BITMAP
00
00
1C
3C
6C
18
18
30
30
FC
00
00
00
ENDCHAR
STARTCHAR char50
ENCODING 50
SWIDTH 497 0
DWIDTH 7 0
BBX 7 13 0 -3
BITMAP
00
00
1C
36
06
1C
38
60
C0
F8
00
00
00
ENDCHAR
STARTCHAR char51
ENCODING 51
SWIDTH 497 0
DWIDTH 7 0
BBX 7 13 0 -3
BITMAP
00
00
1C
36
0C
18
0C
0C
D8
70
00
00
00
ENDCHAR
STARTCHAR char52
ENCODING 52
SWIDTH 497 0
DWIDTH 7 0
BBX 7 13 0 -3
BITMAP
00
00
0E
1E
36
6C
CC
FE
18
18
00
00
00
ENDCHAR
STARTCHAR char53
ENCODING 53
SWIDTH 497 0
DWIDTH 7 0
BBX 7 13 0 -3
BITMAP
00
00
3E
30
60
78
0C
0C
D8
70
00
00
00
ENDCHAR
STARTCHAR char54
ENCODING 54
SWIDTH 497 0
DWIDTH 7 0
BBX 7 13 0 -3
BITMAP
00
00
1C
30
60
78
CC
CC
D8
70
00
00
00
ENDCHAR
STARTCHAR char55
ENCODING 55
SWIDTH 497 0
DWIDTH 7 0
BBX 7 13 0 -3
BITMAP
00
00
FC
0C
18
30
60
60
C0
C0
00
00
00
ENDCHAR
STARTCHAR char56
ENCODING 56
SWIDTH 497 0
DWIDTH 7 0
BBX 7 13 0 -3
BITMAP
00
00
1C
36
6C
38
6C
CC
D8
70
00
00
00
ENDCHAR
STARTCHAR char57
ENCODING 57
SWIDTH 497 0
DWIDTH 7 0
BBX 7 13 0 -3
BITMAP
00
00
1C
36
66
66
3C
0C
18
70
00
00
00
ENDCHAR
STARTCHAR char58
ENCODING 58
SWIDTH 497 0
DWIDTH 7 0
BBX 7 13 0 -3
BITMAP
00
00
00
00
18
18
00
00
30
30
00
00
00
ENDCHAR
STARTCHAR char59
ENCODING 59
SWIDTH 497 0
DWIDTH 7 0
BBX 7 13 0 -3
BITMAP
00
00
00
00
18
18
00
00
30
30
60
C0
00
ENDCHAR
STARTCHAR char60
ENCODING 60
SWIDTH 497 0
DWIDTH 7 0
BBX 7 13 0 -3
BITMAP
00
00
00
0C
18
30
60
60
30
30
00
00
00
ENDCHAR
STARTCHAR char61
ENCODING 61
SWIDTH 497 0
DWIDTH 7 0
BBX 7 13 0 -3
BITMAP
00
00
00
00
00
7E
00
FC
00
00
00
00
00
ENDCHAR
STARTCHAR char62
ENCODING 62
SWIDTH 497 0
DWIDTH 7 0
BBX 7 13 0 -3
BITMAP
00
00
00
18
18
0C
0C
18
30
60
00
00
00
ENDCHAR
STARTCHAR char63
ENCODING 63
SWIDTH 497 0
DWIDTH 7 0
BBX 7 13 0 -3
BITMAP
00
00
3C
66
06
0C
18
00
30
30
00
00
00
ENDCHAR
STARTCHAR char64
ENCODING 64
SWIDTH 497 0
DWIDTH 7 0
BBX 7 13 0 -3
BITMAP
00
00
3C
66
66
6C
FC
DC
C0
7C
00
00
00
ENDCHAR
STARTCHAR char65
ENCODING 65
SWIDTH 497 0
DWIDTH 7 0
BBX 7 13 0 -3
BITMAP
00
00
0E
1E
36
36
7C
6C
CC
CC
00
00
00
ENDCHAR
STARTCHAR char66
ENCODING 66
SWIDTH 497 0
DWIDTH 7 0
BBX 7 13 0 -3
BITMAP
00
00
3C
36
6C
78
68
CC
CC
F8
00
00
00
ENDCHAR
STARTCHAR char67
ENCODING 67
SWIDTH 497 0
DWIDTH 7 0
BBX 7 13 0 -3
BITMAP
00
00
1C
36
60
60
C0
C0
D8
70
00
00
00
ENDCHAR
STARTCHAR char68
ENCODING 68
SWIDTH 497 0
DWIDTH 7 0
BBX 7 13 0 -3
BITMAP
00
00
3C
36
36
66
6C
CC
D8
F0
00
00
00
ENDCHAR
STARTCHAR char69
ENCODING 69
SWIDTH 497 0
DWIDTH 7 0
BBX 7 13 0 -3
BITMAP
00
00
3E
30
60
78
60
C0
C0
F8
00
00
00
ENDCHAR
STARTCHAR char70
ENCODING 70
SWIDTH 497 0
DWIDTH 7 0
BBX 7 13 0 -3
BITMAP
00
00
3E
30
60
78
60
C0
C0
C0
00
00
00
ENDCHAR
STARTCHAR char71
ENCODING 71
SWIDTH 497 0
DWIDTH 7 0
BBX 7 13 0 -3
BITMAP
00
00
1C
36
60
60
DC
CC
D8
70
00
00
00
ENDCHAR
STARTCHAR char72
ENCODING 72
SWIDTH 497 0
DWIDTH 7 0
BBX 7 13 0 -3
BITMAP
00
00
36
36
6C
7C
6C
D8
D8
D8
00
00
00
ENDCHAR
STARTCHAR char73
ENCODING 73
SWIDTH 497 0
DWIDTH 7 0
BBX 7 13 0 -3
BITMAP
00
00
3C
18
30
30
30
60
60
F0
00
00
00
ENDCHAR
STARTCHAR char74
ENCODING 74
SWIDTH 497 0
DWIDTH 7 0
BBX 7 13 0 -3
BITMAP
00
00
1E
06
06
0C
0C
CC
D8
70
00
00
00
ENDCHAR
STARTCHAR char75
ENCODING 75
SWIDTH 497 0
DWIDTH 7 0
BBX 7 13 0 -3
BITMAP
00
00
32
36
6C
78
6C
CC
CC
CC
00
00
00
ENDCHAR
STARTCHAR char76
ENCODING 76
SWIDTH 497 0
DWIDTH 7 0
BBX 7 13 0 -3
BITMAP
00
00
30
30
60
60
60
C0
C0
FC
00
00
00
ENDCHAR
STARTCHAR char77
ENCODING 77
SWIDTH 497 0
DWIDTH 7 0
BBX 7 13 0 -3
BITMAP
00
00
22
36
7E
76
66
CC
CC
CC
00
00
00
ENDCHAR
STARTCHAR char78
ENCODING 78
SWIDTH 497 0
DWIDTH 7 0
BBX 7 13 0 -3
BITMAP
00
00
66
66
76
76
DC
CC
CC
CC
00
00
00
ENDCHAR
STARTCHAR char79
ENCODING 79
SWIDTH 497 0
DWIDTH 7 0
BBX 7 13 0 -3
BITMAP
00
00
1C
36
66
66
CC
CC
D8
70
00
00
00
ENDCHAR
STARTCHAR char80
ENCODING 80
SWIDTH 497 0
DWIDTH 7 0
BBX 7 13 0 -3
BITMAP
00
00
3C
36
36
6C
78
60
C0
C0
00
00
00
ENDCHAR
STARTCHAR char81
ENCODING 81
SWIDTH 497 0
DWIDTH 7 0
BBX 7 13 0 -3
BITMAP
00
00
1C
36
66
66
CC
CC
D8
7C
0C
00
00
ENDCHAR
STARTCHAR char82
ENCODING 82
SWIDTH 497 0
DWIDTH 7 0
BBX 7 13 0 -3
BITMAP
00
00
3C
36
66
7C
78
CC
CC
CC
00
00
00
ENDCHAR
STARTCHAR char83
ENCODING 83
SWIDTH 497 0
DWIDTH 7 0
BBX 7 13 0 -3
BITMAP
00
00
3C
66
60
30
18
18
D8
70
00
00
00
ENDCHAR
STARTCHAR char84
ENCODING 84
SWIDTH 497 0
DWIDTH 7 0
BBX 7 13 0 -3
BITMAP
00
00
7E
18
18
30
30
60
60
60
00
00
00
ENDCHAR
STARTCHAR char85
ENCODING 85
SWIDTH 497 0
DWIDTH 7 0
BBX 7 13 0 -3
BITMAP
00
00
36
36
6C
6C
6C
D8
D8
70
00
00
00
ENDCHAR
STARTCHAR char86
ENCODING 86
SWIDTH 497 0
DWIDTH 7 0
BBX 7 13 0 -3
BITMAP
00
00
66
66
6C
6C
78
70
60
60
00
00
00
ENDCHAR
STARTCHAR char87
ENCODING 87
SWIDTH 497 0
DWIDTH 7 0
BBX 7 13 0 -3
BITMAP
00
00
36
36
66
6C
7C
FC
D8
88
00
00
00
ENDCHAR
STARTCHAR char88
ENCODING 88
SWIDTH 497 0
DWIDTH 7 0
BBX 7 13 0 -3
BITMAP
00
00
66
66
3C
18
30
78
CC
CC
00
00
00
ENDCHAR
STARTCHAR char89
ENCODING 89
SWIDTH 497 0
DWIDTH 7 0
BBX 7 13 0 -3
BITMAP
00
00
66
66
6C
78
30
30
60
60
00
00
00
ENDCHAR
STARTCHAR char90
ENCODING 90
SWIDTH 497 0
DWIDTH 7 0
BBX 7 13 0 -3
BITMAP
00
00
3E
0C
18
30
60
60
C0
F8
00
00
00
ENDCHAR
STARTCHAR char91
ENCODING 91
SWIDTH 497 0
DWIDTH 7 0
BBX 7 13 0 -3
BITMAP
00
3C
30
30
60
60
60
60
C0
C0
C0
F0
00
ENDCHAR
STARTCHAR char92
ENCODING 92
SWIDTH 497 0
DWIDTH 7 0
BBX 7 13 0 -3
BITMAP
00
60
60
30
30
30
18
18
18
0C
0C
00
00
ENDCHAR
STARTCHAR char93
ENCODING 93
SWIDTH 497 0
DWIDTH 7 0
BBX 7 13 0 -3
BITMAP
00
3C
0C
0C
18
18
18
18
30
30
30
F0
00
ENDCHAR
STARTCHAR char94
ENCODING 94
SWIDTH 497 0
DWIDTH 7 0
BBX 7 13 0 -3
BITMAP
00
38
38
6C
6C
CC
CC
00
00
00
00
00
00
ENDCHAR
STARTCHAR char95
ENCODING 95
SWIDTH 497 0
DWIDTH 7 0
BBX 7 13 0 -3
BITMAP
00
00
00
00
00
00
00
00
00
00
FE
00
00
ENDCHAR
STARTCHAR char96
ENCODING 96
SWIDTH 497 0
DWIDTH 7 0
BBX 7 13 0 -3
BITMAP
00
30
18
00
00
00
00
00
00
00
00
00
00
ENDCHAR
STARTCHAR char97
ENCODING 97
SWIDTH 497 0
DWIDTH 7 0
BBX 7 13 0 -3
BITMAP
00
00
00
00
38
0C
7C
CC
D8
78
00
00
00
ENDCHAR
STARTCHAR char98
ENCODING 98
SWIDTH 497 0
DWIDTH 7 0
BBX 7 13 0 -3
BITMAP
00
30
30
30
78
6C
6C
D8
D8
F0
00
00
00
ENDCHAR
STARTCHAR char99
ENCODING 99
SWIDTH 497 0
DWIDTH 7 0
BBX 7 13 0 -3
BITMAP
00
00
00
00
38
6C
60
C0
D8
70
00
00
00
ENDCHAR
STARTCHAR char100
ENCODING 100
SWIDTH 497 0
DWIDTH 7 0
BBX 7 13 0 -3
BITMAP
00
06
06
06
3C
6C
6C
D8
D8
78
00
00
00
ENDCHAR
STARTCHAR char101
ENCODING 101
SWIDTH 497 0
DWIDTH 7 0
BBX 7 13 0 -3
BITMAP
00
00
00
00
38
6C
7C
C0
D8
70
00
00
00
ENDCHAR
STARTCHAR char102
ENCODING 102
SWIDTH 497 0
DWIDTH 7 0
BBX 7 13 0 -3
BITMAP
00
0E
18
18
7C
30
30
60
60
60
00
00
00
ENDCHAR
STARTCHAR char103
ENCODING 103
SWIDTH 497 0
DWIDTH 7 0
BBX 7 13 0 -3
BITMAP
00
00
00
00
3C
6C
6C
D8
D8
78
30
30
E0
ENDCHAR
STARTCHAR char104
ENCODING 104
SWIDTH 497 0
DWIDTH 7 0
BBX 7 13 0 -3
BITMAP
00
30
30
30
78
6C
6C
D8
D8
D8
00
00
00
ENDCHAR
STARTCHAR char105
ENCODING 105
SWIDTH 497 0
DWIDTH 7 0
BBX 7 13 0 -3
BITMAP
00
0C
0C
00
38
18
18
30
30
30
00
00
00
ENDCHAR
STARTCHAR char106
ENCODING 106
SWIDTH 497 0
DWIDTH 7 0
BBX 7 13 0 -3
BITMAP
00
0C
0C
00
38
18
18
18
30
30
30
E0
00
ENDCHAR
STARTCHAR char107
ENCODING 107
SWIDTH 497 0
DWIDTH 7 0
BBX 7 13 0 -3
BITMAP
00
30
30
30
66
6C
78
F0
D8
CC
00
00
00
ENDCHAR
STARTCHAR char108
ENCODING 108
SWIDTH 497 0
DWIDTH 7 0
BBX 7 13 0 -3
BITMAP
00
38
18
18
30
30
30
60
60
60
00
00
00
ENDCHAR
STARTCHAR char109
ENCODING 109
SWIDTH 497 0
DWIDTH 7 0
BBX 7 13 0 -3
BITMAP
00
00
00
00
6C
7E
7E
D4
CC
CC
00
00
00
ENDCHAR
STARTCHAR char110
ENCODING 110
SWIDTH 497 0
DWIDTH 7 0
BBX 7 13 0 -3
BITMAP
00
00
00
00
78
6C
6C
D8
D8
D8
00
00
00
ENDCHAR
STARTCHAR char111
ENCODING 111
SWIDTH 497 0
DWIDTH 7 0
BBX 7 13 0 -3
BITMAP
00
00
00
00
38
6C
6C
D8
D8
70
00
00
00
ENDCHAR
STARTCHAR char112
ENCODING 112
SWIDTH 497 0
DWIDTH 7 0
BBX 7 13 0 -3
BITMAP
00
00
00
00
3C
36
36
6C
6C
78
C0
C0
C0
ENDCHAR
STARTCHAR char113
ENCODING 113
SWIDTH 497 0
DWIDTH 7 0
BBX 7 13 0 -3
BITMAP
00
00
00
00
3C
6C
6C
D8
D8
78
30
30
30
ENDCHAR
STARTCHAR char114
ENCODING 114
SWIDTH 497 0
DWIDTH 7 0
BBX 7 13 0 -3
BITMAP
00
00
00
00
6C
76
60
C0
C0
C0
00
00
00
ENDCHAR
STARTCHAR char115
ENCODING 115
SWIDTH 497 0
DWIDTH 7 0
BBX 7 13 0 -3
BITMAP
00
00
00
00
38
6C
30
18
D8
70
00
00
00
ENDCHAR
STARTCHAR char116
ENCODING 116
SWIDTH 497 0
DWIDTH 7 0
BBX 7 13 0 -3
BITMAP
00
00
18
18
7C
30
30
60
60
3C
00
00
00
ENDCHAR
STARTCHAR char117
ENCODING 117
SWIDTH 497 0
DWIDTH 7 0
BBX 7 13 0 -3
BITMAP
00
00
00
00
6C
6C
6C
D8
D8
78
00
00
00
ENDCHAR
STARTCHAR char118
ENCODING 118
SWIDTH 497 0
DWIDTH 7 0
BBX 7 13 0 -3
BITMAP
00
00
00
00
6C
6C
38
38
30
20
00
00
00
ENDCHAR
STARTCHAR char119
ENCODING 119
SWIDTH 497 0
DWIDTH 7 0
BBX 7 13 0 -3
BITMAP
00
00
00
00
66
66
D6
D4
7C
58
00
00
00
ENDCHAR
STARTCHAR char120
ENCODING 120
SWIDTH 497 0
DWIDTH 7 0
BBX 7 13 0 -3
BITMAP
00
00
00
00
66
3C
18
30
78
CC
00
00
00
ENDCHAR
STARTCHAR char121
ENCODING 121
SWIDTH 497 0
DWIDTH 7 0
BBX 7 13 0 -3
BITMAP
00
00
00
00
6C
6C
6C
D8
D8
78
30
30
E0
ENDCHAR
STARTCHAR char122
ENCODING 122
SWIDTH 497 0
DWIDTH 7 0
BBX 7 13 0 -3
BITMAP
00
00
00
00
7C
0C
38
60
C0
F8
00
00
00
ENDCHAR
STARTCHAR char123
ENCODING 123
SWIDTH 497 0
DWIDTH 7 0
BBX 7 13 0 -3
BITMAP
00
0E
18
18
30
30
E0
30
60
60
60
38
00
ENDCHAR
STARTCHAR char124
ENCODING 124
SWIDTH 497 0
DWIDTH 7 0
BBX 7 13 0 -3
BITMAP
00
18
18
18
30
30
30
30
30
60
60
60
00
ENDCHAR
STARTCHAR char125
ENCODING 125
SWIDTH 497 0
DWIDTH 7 0
BBX 7 13 0 -3
BITMAP
00
38
0C
0C
18
18
0E
18
18
30
30
E0
00
ENDCHAR
STARTCHAR char126
ENCODING 126
SWIDTH 497 0
DWIDTH 7 0
BBX 7 13 0 -3
BITMAP
00
00
00
00
00
64
FC
98
00
00
00
00
00
ENDCHAR
STARTCHAR char127
ENCODING 127
SWIDTH 497 0
DWIDTH 7 0
BBX 7 13 0 -3
BITMAP
00
00
00
00
00
00
00
00
00
00
00
00
00
ENDCHAR
STARTCHAR char128
ENCODING 128
SWIDTH 497 0
DWIDTH 7 0
BBX 7 13 0 -3
BITMAP
00
00
00
1C
36
F8
60
F0
6C
38
00
00
00
ENDCHAR
STARTCHAR char129
ENCODING 129
SWIDTH 497 0
DWIDTH 7 0
BBX 7 13 0 -3
BITMAP
00
00
00
00
00
00
00
00
00
00
00
00
00
ENDCHAR
STARTCHAR char130
ENCODING 130
SWIDTH 497 0
DWIDTH 7 0
BBX 7 13 0 -3
BITMAP
00
00
00
00
00
00
00
00
18
18
30
60
00
ENDCHAR
STARTCHAR char131
ENCODING 131
SWIDTH 497 0
DWIDTH 7 0
BBX 7 13 0 -3
BITMAP
00
0E
18
18
7C
30
30
30
60
60
60
C0
00
ENDCHAR
STARTCHAR char132
ENCODING 132
SWIDTH 497 0
DWIDTH 7 0
BBX 7 13 0 -3
BITMAP
00
00
00
00
00
00
00
00
6C
6C
6C
00
00
ENDCHAR
STARTCHAR char133
ENCODING 133
SWIDTH 497 0
DWIDTH 7 0
BBX 7 13 0 -3
BITMAP
00
00
00
00
00
00
00
00
00
54
00
00
00
ENDCHAR
STARTCHAR char134
ENCODING 134
SWIDTH 497 0
DWIDTH 7 0
BBX 7 13 0 -3
BITMAP
00
18
18
7C
30
30
30
30
60
60
00
00
00
ENDCHAR
STARTCHAR char135
ENCODING 135
SWIDTH 497 0
DWIDTH 7 0
BBX 7 13 0 -3
BITMAP
00
18
18
7C
30
F8
30
30
60
60
00
00
00
ENDCHAR
STARTCHAR char136
ENCODING 136
SWIDTH 497 0
DWIDTH 7 0
BBX 7 13 0 -3
BITMAP
00
38
6C
CC
00
00
00
00
00
00
00
00
00
ENDCHAR
STARTCHAR char137
ENCODING 137
SWIDTH 497 0
DWIDTH 7 0
BBX 7 13 0 -3
BITMAP
00
00
48
48
10
10
20
20
54
54
00
00
00
ENDCHAR
STARTCHAR char138
ENCODING 138
SWIDTH 497 0
DWIDTH 7 0
BBX 7 13 0 -3
BITMAP
6C
38
3C
66
60
30
18
18
D8
70
00
00
00
ENDCHAR
STARTCHAR char139
ENCODING 139
SWIDTH 497 0
DWIDTH 7 0
BBX 7 13 0 -3
BITMAP
00
00
00
00
18
30
60
60
30
00
00
00
00
ENDCHAR
STARTCHAR char140
ENCODING 140
SWIDTH 497 0
DWIDTH 7 0
BBX 7 13 0 -3
BITMAP
00
00
36
6C
68
DC
D8
B0
B0
58
00
00
00
ENDCHAR
STARTCHAR char141
ENCODING 141
SWIDTH 497 0
DWIDTH 7 0
BBX 7 13 0 -3
BITMAP
00
00
00
00
00
00
00
00
00
00
00
00
00
ENDCHAR
STARTCHAR char142
ENCODING 142
SWIDTH 497 0
DWIDTH 7 0
BBX 7 13 0 -3
BITMAP
36
1C
3E
0C
18
30
60
60
C0
F8
00
00
00
ENDCHAR
STARTCHAR char143
ENCODING 143
SWIDTH 497 0
DWIDTH 7 0
BBX 7 13 0 -3
BITMAP
00
00
00
00
00
00
00
00
00
00
00
00
00
ENDCHAR
STARTCHAR char144
ENCODING 144
SWIDTH 497 0
DWIDTH 7 0
BBX 7 13 0 -3
BITMAP
00
00
00
00
00
00
00
00
00
00
00
00
00
ENDCHAR
STARTCHAR char145
ENCODING 145
SWIDTH 497 0
DWIDTH 7 0
BBX 7 13 0 -3
BITMAP
00
30
30
18
00
00
00
00
00
00
00
00
00
ENDCHAR
STARTCHAR char146
ENCODING 146
SWIDTH 497 0
DWIDTH 7 0
BBX 7 13 0 -3
BITMAP
00
30
30
60
00
00
00
00
00
00
00
00
00
ENDCHAR
STARTCHAR char147
ENCODING 147
SWIDTH 497 0
DWIDTH 7 0
BBX 7 13 0 -3
BITMAP
00
6C
6C
36
00
00
00
00
00
00
00
00
00
ENDCHAR
STARTCHAR char148
ENCODING 148
SWIDTH 497 0
DWIDTH 7 0
BBX 7 13 0 -3
BITMAP
00
36
36
6C
00
00
00
00
00
00
00
00
00
ENDCHAR
STARTCHAR char149
ENCODING 149
SWIDTH 497 0
DWIDTH 7 0
BBX 7 13 0 -3
BITMAP
00
00
00
00
30
78
FC
78
30
00
00
00
00
ENDCHAR
STARTCHAR char150
ENCODING 150
SWIDTH 497 0
DWIDTH 7 0
BBX 7 13 0 -3
BITMAP
00
00
00
00
00
00
FC
00
00
00
00
00
00
ENDCHAR
STARTCHAR char151
ENCODING 151
SWIDTH 497 0
DWIDTH 7 0
BBX 7 13 0 -3
BITMAP
00
00
00
00
00
00
FE
00
00
00
00
00
00
ENDCHAR
STARTCHAR char152
ENCODING 152
SWIDTH 497 0
DWIDTH 7 0
BBX 7 13 0 -3
BITMAP
00
00
3A
5C
00
00
00
00
00
00
00
00
00
ENDCHAR
STARTCHAR char153
ENCODING 153
SWIDTH 497 0
DWIDTH 7 0
BBX 7 13 0 -3
BITMAP
00
00
7C
2C
2C
2C
00
00
00
00
00
00
00
ENDCHAR
STARTCHAR char154
ENCODING 154
SWIDTH 497 0
DWIDTH 7 0
BBX 7 13 0 -3
BITMAP
00
36
1C
00
38
6C
30
18
D8
70
00
00
00
ENDCHAR
STARTCHAR char155
ENCODING 155
SWIDTH 497 0
DWIDTH 7 0
BBX 7 13 0 -3
BITMAP
00
00
00
00
30
18
18
30
60
00
00
00
00
ENDCHAR
STARTCHAR char156
ENCODING 156
SWIDTH 497 0
DWIDTH 7 0
BBX 7 13 0 -3
BITMAP
00
00
00
00
68
D4
BC
B0
EC
58
00
00
00
ENDCHAR
STARTCHAR char157
ENCODING 157
SWIDTH 497 0
DWIDTH 7 0
BBX 7 13 0 -3
BITMAP
00
00
00
00
00
00
00
00
00
00
00
00
00
ENDCHAR
STARTCHAR char158
ENCODING 158
SWIDTH 497 0
DWIDTH 7 0
BBX 7 13 0 -3
BITMAP
00
6C
38
00
7C
18
30
60
C0
F8
00
00
00
ENDCHAR
STARTCHAR char159
ENCODING 159
SWIDTH 497 0
DWIDTH 7 0
BBX 7 13 0 -3
BITMAP
36
00
66
66
6C
78
30
30
60
60
00
00
00
ENDCHAR
STARTCHAR char160
ENCODING 160
SWIDTH 497 0
DWIDTH 7 0
BBX 7 13 0 -3
BITMAP
00
00
00
00
00
00
00
00
00
00
00
00
00
ENDCHAR
STARTCHAR char161
ENCODING 161
SWIDTH 497 0
DWIDTH 7 0
BBX 7 13 0 -3
BITMAP
00
00
18
18
00
30
30
60
60
60
00
00
00
ENDCHAR
STARTCHAR char162
ENCODING 162
SWIDTH 497 0
DWIDTH 7 0
BBX 7 13 0 -3
BITMAP
00
00
10
10
38
6C
60
E0
D8
70
20
20
00
ENDCHAR
STARTCHAR char163
ENCODING 163
SWIDTH 497 0
DWIDTH 7 0
BBX 7 13 0 -3
BITMAP
00
00
1C
30
30
F8
60
60
C0
FC
00
00
00
ENDCHAR
STARTCHAR char164
ENCODING 164
SWIDTH 497 0
DWIDTH 7 0
BBX 7 13 0 -3
BITMAP
00
00
00
00
CC
78
68
68
78
CC
00
00
00
ENDCHAR
STARTCHAR char165
ENCODING 165
SWIDTH 497 0
DWIDTH 7 0
BBX 7 13 0 -3
BITMAP
00
00
66
66
6C
78
30
FC
60
60
00
00
00
ENDCHAR
STARTCHAR char166
ENCODING 166
SWIDTH 497 0
DWIDTH 7 0
BBX 7 13 0 -3
BITMAP
00
0C
0C
18
18
18
00
30
30
30
60
60
00
ENDCHAR
STARTCHAR char167
ENCODING 167
SWIDTH 497 0
DWIDTH 7 0
BBX 7 13 0 -3
BITMAP
00
3C
66
60
38
6C
38
18
D8
70
00
00
00
ENDCHAR
STARTCHAR char168
ENCODING 168
SWIDTH 497 0
DWIDTH 7 0
BBX 7 13 0 -3
BITMAP
00
6C
00
00
00
00
00
00
00
00
00
00
00
ENDCHAR
STARTCHAR char169
ENCODING 169
SWIDTH 497 0
DWIDTH 7 0
BBX 7 13 0 -3
BITMAP
00
00
1C
3E
66
5E
BC
CC
F8
70
00
00
00
ENDCHAR
STARTCHAR char170
ENCODING 170
SWIDTH 497 0
DWIDTH 7 0
BBX 7 13 0 -3
BITMAP
00
00
70
18
78
D8
78
00
00
00
00
00
00
ENDCHAR
STARTCHAR char171
ENCODING 171
SWIDTH 497 0
DWIDTH 7 0
BBX 7 13 0 -3
BITMAP
00
00
00
00
34
68
D0
D0
68
00
00
00
00
ENDCHAR
STARTCHAR char172
ENCODING 172
SWIDTH 497 0
DWIDTH 7 0
BBX 7 13 0 -3
BITMAP
00
00
00
00
00
00
F8
18
30
30
00
00
00
ENDCHAR
STARTCHAR char173
ENCODING 173
SWIDTH 497 0
DWIDTH 7 0
BBX 7 13 0 -3
BITMAP
00
00
00
00
00
00
00
00
00
00
00
00
00
ENDCHAR
STARTCHAR char174
ENCODING 174
SWIDTH 497 0
DWIDTH 7 0
BBX 7 13 0 -3
BITMAP
00
00
1C
26
5A
46
CC
A8
A8
70
00
00
00
ENDCHAR
STARTCHAR char175
ENCODING 175
SWIDTH 497 0
DWIDTH 7 0
BBX 7 13 0 -3
BITMAP
FE
00
00
00
00
00
00
00
00
00
00
00
00
ENDCHAR
STARTCHAR char176
ENCODING 176
SWIDTH 497 0
DWIDTH 7 0
BBX 7 13 0 -3
BITMAP
00
70
D8
D8
70
00
00
00
00
00
00
00
00
ENDCHAR
STARTCHAR char177
ENCODING 177
SWIDTH 497 0
DWIDTH 7 0
BBX 7 13 0 -3
BITMAP
00
00
00
30
30
F8
60
60
00
F8
00
00
00
ENDCHAR
STARTCHAR char178
ENCODING 178
SWIDTH 497 0
DWIDTH 7 0
BBX 7 13 0 -3
BITMAP
00
F0
18
30
60
F8
00
00
00
00
00
00
00
ENDCHAR
STARTCHAR char179
ENCODING 179
SWIDTH 497 0
DWIDTH 7 0
BBX 7 13 0 -3
BITMAP
00
F0
18
70
18
F0
00
00
00
00
00
00
00
ENDCHAR
STARTCHAR char180
ENCODING 180
SWIDTH 497 0
DWIDTH 7 0
BBX 7 13 0 -3
BITMAP
00
18
30
00
00
00
00
00
00
00
00
00
00
ENDCHAR
STARTCHAR char181
ENCODING 181
SWIDTH 497 0
DWIDTH 7 0
BBX 7 13 0 -3
BITMAP
00
00
00
00
36
36
36
6C
7C
68
60
C0
00
ENDCHAR
STARTCHAR char182
ENCODING 182
SWIDTH 497 0
DWIDTH 7 0
BBX 7 13 0 -3
BITMAP
00
00
3C
74
74
34
14
14
14
14
14
00
00
ENDCHAR
STARTCHAR char183
ENCODING 183
SWIDTH 497 0
DWIDTH 7 0
BBX 7 13 0 -3
BITMAP
00
00
00
00
00
10
38
10
00
00
00
00
00
ENDCHAR
STARTCHAR char184
ENCODING 184
SWIDTH 497 0
DWIDTH 7 0
BBX 7 13 0 -3
BITMAP
00
00
00
00
00
00
00
00
00
38
18
30
00
ENDCHAR
STARTCHAR char185
ENCODING 185
SWIDTH 497 0
DWIDTH 7 0
BBX 7 13 0 -3
BITMAP
00
60
E0
60
60
F0
00
00
00
00
00
00
00
ENDCHAR
STARTCHAR char186
ENCODING 186
SWIDTH 497 0
DWIDTH 7 0
BBX 7 13 0 -3
BITMAP
00
70
D8
D8
D8
70
00
00
00
00
00
00
00
ENDCHAR
STARTCHAR char187
ENCODING 187
SWIDTH 497 0
DWIDTH 7 0
BBX 7 13 0 -3
BITMAP
00
00
00
00
68
34
34
68
D0
00
00
00
00
ENDCHAR
STARTCHAR char188
ENCODING 188
SWIDTH 497 0
DWIDTH 7 0
BBX 7 13 0 -3
BITMAP
00
44
48
48
50
10
24
2C
5C
44
00
00
00
ENDCHAR
STARTCHAR char189
ENCODING 189
SWIDTH 497 0
DWIDTH 7 0
BBX 7 13 0 -3
BITMAP
00
44
48
48
50
10
28
24
48
4C
00
00
00
ENDCHAR
STARTCHAR char190
ENCODING 190
SWIDTH 497 0
DWIDTH 7 0
BBX 7 13 0 -3
BITMAP
00
64
28
48
30
70
24
2C
5C
44
00
00
00
ENDCHAR
STARTCHAR char191
ENCODING 191
SWIDTH 497 0
DWIDTH 7 0
BBX 7 13 0 -3
BITMAP
00
00
18
18
00
30
60
C0
CC
78
00
00
00
ENDCHAR
STARTCHAR char192
ENCODING 192
SWIDTH 497 0
DWIDTH 7 0
BBX 7 13 0 -3
BITMAP
18
0C
00
0E
1E
36
7C
6C
CC
CC
00
00
00
ENDCHAR
STARTCHAR char193
ENCODING 193
SWIDTH 497 0
DWIDTH 7 0
BBX 7 13 0 -3
BITMAP
06
0C
00
0E
1E
36
7C
6C
CC
CC
00
00
00
ENDCHAR
STARTCHAR char194
ENCODING 194
SWIDTH 497 0
DWIDTH 7 0
BBX 7 13 0 -3
BITMAP
1C
36
00
0E
1E
36
7C
6C
CC
CC
00
00
00
ENDCHAR
STARTCHAR char195
ENCODING 195
SWIDTH 497 0
DWIDTH 7 0
BBX 7 13 0 -3
BITMAP
1A
2C
00
0E
1E
36
7C
6C
CC
CC
00
00
00
ENDCHAR
STARTCHAR char196
ENCODING 196
SWIDTH 497 0
DWIDTH 7 0
BBX 7 13 0 -3
BITMAP
00
36
00
0E
1E
36
7C
6C
CC
CC
00
00
00
ENDCHAR
STARTCHAR char197
ENCODING 197
SWIDTH 497 0
DWIDTH 7 0
BBX 7 13 0 -3
BITMAP
1C
36
1C
1E
36
36
7C
6C
CC
CC
00
00
00
ENDCHAR
STARTCHAR char198
ENCODING 198
SWIDTH 497 0
DWIDTH 7 0
BBX 7 13 0 -3
BITMAP
00
00
1E
3C
28
6C
78
D8
D8
DC
00
00
00
ENDCHAR
STARTCHAR char199
ENCODING 199
SWIDTH 497 0
DWIDTH 7 0
BBX 7 13 0 -3
BITMAP
00
00
1C
36
60
60
C0
C0
D8
70
60
60
C0
ENDCHAR
STARTCHAR char200
ENCODING 200
SWIDTH 497 0
DWIDTH 7 0
BBX 7 13 0 -3
BITMAP
18
0C
00
3E
30
60
78
60
C0
F8
00
00
00
ENDCHAR
STARTCHAR char201
ENCODING 201
SWIDTH 497 0
DWIDTH 7 0
BBX 7 13 0 -3
BITMAP
06
0C
00
3E
30
60
78
60
C0
F8
00
00
00
ENDCHAR
STARTCHAR char202
ENCODING 202
SWIDTH 497 0
DWIDTH 7 0
BBX 7 13 0 -3
BITMAP
1C
36
00
3E
30
60
78
60
C0
F8
00
00
00
ENDCHAR
STARTCHAR char203
ENCODING 203
SWIDTH 497 0
DWIDTH 7 0
BBX 7 13 0 -3
BITMAP
00
36
00
3E
30
60
78
60
C0
F8
00
00
00
ENDCHAR
STARTCHAR char204
ENCODING 204
SWIDTH 497 0
DWIDTH 7 0
BBX 7 13 0 -3
BITMAP
18
0C
00
3C
18
30
30
60
60
F0
00
00
00
ENDCHAR
STARTCHAR char205
ENCODING 205
SWIDTH 497 0
DWIDTH 7 0
BBX 7 13 0 -3
BITMAP
06
0C
00
3C
18
30
30
60
60
F0
00
00
00
ENDCHAR
STARTCHAR char206
ENCODING 206
SWIDTH 497 0
DWIDTH 7 0
BBX 7 13 0 -3
BITMAP
1C
36
00
3C
18
30
30
60
60
F0
00
00
00
ENDCHAR
STARTCHAR char207
ENCODING 207
SWIDTH 497 0
DWIDTH 7 0
BBX 7 13 0 -3
BITMAP
00
36
00
3C
18
30
30
60
60
F0
00
00
00
ENDCHAR
STARTCHAR char208
ENCODING 208
SWIDTH 497 0
DWIDTH 7 0
BBX 7 13 0 -3
BITMAP
00
00
00
38
34
34
FC
68
68
70
00
00
00
ENDCHAR
STARTCHAR char209
ENCODING 209
SWIDTH 497 0
DWIDTH 7 0
BBX 7 13 0 -3
BITMAP
1A
2C
00
66
66
76
76
DC
CC
CC
00
00
00
ENDCHAR
STARTCHAR char210
ENCODING 210
SWIDTH 497 0
DWIDTH 7 0
BBX 7 13 0 -3
BITMAP
18
0C
00
1C
36
66
6C
CC
D8
70
00
00
00
ENDCHAR
STARTCHAR char211
ENCODING 211
SWIDTH 497 0
DWIDTH 7 0
BBX 7 13 0 -3
BITMAP
06
0C
00
1C
36
66
6C
CC
D8
70
00
00
00
ENDCHAR
STARTCHAR char212
ENCODING 212
SWIDTH 497 0
DWIDTH 7 0
BBX 7 13 0 -3
BITMAP
1C
36
00
1C
36
66
6C
CC
D8
70
00
00
00
ENDCHAR
STARTCHAR char213
ENCODING 213
SWIDTH 497 0
DWIDTH 7 0
BBX 7 13 0 -3
BITMAP
1A
2C
00
1C
36
66
6C
CC
D8
70
00
00
00
ENDCHAR
STARTCHAR char214
ENCODING 214
SWIDTH 497 0
DWIDTH 7 0
BBX 7 13 0 -3
BITMAP
00
36
00
1C
36
66
6C
CC
D8
70
00
00
00
ENDCHAR
STARTCHAR char215
ENCODING 215
SWIDTH 497 0
DWIDTH 7 0
BBX 7 13 0 -3
BITMAP
00
00
00
00
6C
78
30
78
D8
00
00
00
00
ENDCHAR
STARTCHAR char216
ENCODING 216
SWIDTH 497 0
DWIDTH 7 0
BBX 7 13 0 -3
BITMAP
00
04
1C
38
6C
6C
D8
D8
70
E0
80
00
00
ENDCHAR
STARTCHAR char217
ENCODING 217
SWIDTH 497 0
DWIDTH 7 0
BBX 7 13 0 -3
BITMAP
18
0C
00
36
36
6C
6C
D8
D8
70
00
00
00
ENDCHAR
STARTCHAR char218
ENCODING 218
SWIDTH 497 0
DWIDTH 7 0
BBX 7 13 0 -3
BITMAP
06
0C
00
36
36
6C
6C
D8
D8
70
00
00
00
ENDCHAR
STARTCHAR char219
ENCODING 219
SWIDTH 497 0
DWIDTH 7 0
BBX 7 13 0 -3
BITMAP
1C
36
00
36
36
6C
6C
D8
D8
70
00
00
00
ENDCHAR
STARTCHAR char220
ENCODING 220
SWIDTH 497 0
DWIDTH 7 0
BBX 7 13 0 -3
BITMAP
00
36
00
36
36
6C
6C
D8
D8
70
00
00
00
ENDCHAR
STARTCHAR char221
ENCODING 221
SWIDTH 497 0
DWIDTH 7 0
BBX 7 13 0 -3
BITMAP
0C
18
00
66
66
6C
78
30
60
60
00
00
00
ENDCHAR
STARTCHAR char222
ENCODING 222
SWIDTH 497 0
DWIDTH 7 0
BBX 7 13 0 -3
BITMAP
00
00
30
30
78
6C
6C
F8
C0
C0
00
00
00
ENDCHAR
STARTCHAR char223
ENCODING 223
SWIDTH 497 0
DWIDTH 7 0
BBX 7 13 0 -3
BITMAP
00
0E
1A
16
3C
34
34
6C
68
78
C0
00
00
ENDCHAR
STARTCHAR char224
ENCODING 224
SWIDTH 497 0
DWIDTH 7 0
BBX 7 13 0 -3
BITMAP
00
30
18
00
38
0C
7C
CC
D8
78
00
00
00
ENDCHAR
STARTCHAR char225
ENCODING 225
SWIDTH 497 0
DWIDTH 7 0
BBX 7 13 0 -3
BITMAP
00
0C
18
00
38
0C
7C
CC
D8
78
00
00
00
ENDCHAR
STARTCHAR char226
ENCODING 226
SWIDTH 497 0
DWIDTH 7 0
BBX 7 13 0 -3
BITMAP
00
1C
36
00
38
0C
7C
CC
D8
78
00
00
00
ENDCHAR
STARTCHAR char227
ENCODING 227
SWIDTH 497 0
DWIDTH 7 0
BBX 7 13 0 -3
BITMAP
00
1A
2C
00
38
0C
7C
CC
D8
78
00
00
00
ENDCHAR
STARTCHAR char228
ENCODING 228
SWIDTH 497 0
DWIDTH 7 0
BBX 7 13 0 -3
BITMAP
00
36
00
00
38
0C
7C
CC
D8
78
00
00
00
ENDCHAR
STARTCHAR char229
ENCODING 229
SWIDTH 497 0
DWIDTH 7 0
BBX 7 13 0 -3
BITMAP
1C
36
1C
00
38
0C
7C
CC
D8
78
00
00
00
ENDCHAR
STARTCHAR char230
ENCODING 230
SWIDTH 497 0
DWIDTH 7 0
BBX 7 13 0 -3
BITMAP
00
00
00
00
6C
16
7C
B0
B4
68
00
00
00
ENDCHAR
STARTCHAR char231
ENCODING 231
SWIDTH 497 0
DWIDTH 7 0
BBX 7 13 0 -3
BITMAP
00
00
00
00
38
6C
60
C0
D8
70
60
60
C0
ENDCHAR
STARTCHAR char232
ENCODING 232
SWIDTH 497 0
DWIDTH 7 0
BBX 7 13 0 -3
BITMAP
00
30
18
00
38
6C
7C
C0
D8
70
00
00
00
ENDCHAR
STARTCHAR char233
ENCODING 233
SWIDTH 497 0
DWIDTH 7 0
BBX 7 13 0 -3
BITMAP
00
0C
18
00
38
6C
7C
C0
D8
70
00
00
00
ENDCHAR
STARTCHAR char234
ENCODING 234
SWIDTH 497 0
DWIDTH 7 0
BBX 7 13 0 -3
BITMAP
00
1C
36
00
38
6C
7C
C0
D8
70
00
00
00
ENDCHAR
STARTCHAR char235
ENCODING 235
SWIDTH 497 0
DWIDTH 7 0
BBX 7 13 0 -3
BITMAP
00
36
00
00
38
6C
7C
C0
D8
70
00
00
00
ENDCHAR
STARTCHAR char236
ENCODING 236
SWIDTH 497 0
DWIDTH 7 0
BBX 7 13 0 -3
BITMAP
00
30
18
00
38
18
18
30
30
78
00
00
00
ENDCHAR
STARTCHAR char237
ENCODING 237
SWIDTH 497 0
DWIDTH 7 0
BBX 7 13 0 -3
BITMAP
00
0C
18
00
38
18
18
30
30
78
00
00
00
ENDCHAR
STARTCHAR char238
ENCODING 238
SWIDTH 497 0
DWIDTH 7 0
BBX 7 13 0 -3
BITMAP
00
1C
36
00
38
18
18
30
30
78
00
00
00
ENDCHAR
STARTCHAR char239
ENCODING 239
SWIDTH 497 0
DWIDTH 7 0
BBX 7 13 0 -3
BITMAP
00
36
00
00
38
18
18
30
30
78
00
00
00
ENDCHAR
STARTCHAR char240
ENCODING 240
SWIDTH 497 0
DWIDTH 7 0
BBX 7 13 0 -3
BITMAP
00
3A
0C
16
06
3C
6C
D8
D8
70
00
00
00
ENDCHAR
STARTCHAR char241
ENCODING 241
SWIDTH 497 0
DWIDTH 7 0
BBX 7 13 0 -3
BITMAP
00
1A
2C
00
78
6C
6C
D8
D8
D8
00
00
00
ENDCHAR
STARTCHAR char242
ENCODING 242
SWIDTH 497 0
DWIDTH 7 0
BBX 7 13 0 -3
BITMAP
00
30
18
00
38
6C
6C
D8
D8
70
00
00
00
ENDCHAR
STARTCHAR char243
ENCODING 243
SWIDTH 497 0
DWIDTH 7 0
BBX 7 13 0 -3
BITMAP
00
0C
18
00
38
6C
6C
D8
D8
70
00
00
00
ENDCHAR
STARTCHAR char244
ENCODING 244
SWIDTH 497 0
DWIDTH 7 0
BBX 7 13 0 -3
BITMAP
00
1C
36
00
38
6C
6C
D8
D8
70
00
00
00
ENDCHAR
STARTCHAR char245
ENCODING 245
SWIDTH 497 0
DWIDTH 7 0
BBX 7 13 0 -3
BITMAP
00
1A
2C
00
38
6C
6C
D8
D8
70
00
00
00
ENDCHAR
STARTCHAR char246
ENCODING 246
SWIDTH 497 0
DWIDTH 7 0
BBX 7 13 0 -3
BITMAP
00
36
00
00
38
6C
6C
D8
D8
70
00
00
00
ENDCHAR
STARTCHAR char247
ENCODING 247
SWIDTH 497 0
DWIDTH 7 0
BBX 7 13 0 -3
BITMAP
00
00
00
00
30
00
FC
00
60
00
00
00
00
ENDCHAR
STARTCHAR char248
ENCODING 248
SWIDTH 497 0
DWIDTH 7 0
BBX 7 13 0 -3
BITMAP
00
00
00
0C
38
6C
6C
D8
D8
70
C0
00
00
ENDCHAR
STARTCHAR char249
ENCODING 249
SWIDTH 497 0
DWIDTH 7 0
BBX 7 13 0 -3
BITMAP
00
30
18
00
6C
6C
6C
D8
D8
78
00
00
00
ENDCHAR
STARTCHAR char250
ENCODING 250
SWIDTH 497 0
DWIDTH 7 0
BBX 7 13 0 -3
BITMAP
00
0C
18
00
6C
6C
6C
D8
D8
78
00
00
00
ENDCHAR
STARTCHAR char251
ENCODING 251
SWIDTH 497 0
DWIDTH 7 0
BBX 7 13 0 -3
BITMAP
00
1C
36
00
6C
6C
6C
D8
D8
78
00
00
00
ENDCHAR
STARTCHAR char252
ENCODING 252
SWIDTH 497 0
DWIDTH 7 0
BBX 7 13 0 -3
BITMAP
00
36
00
00
6C
6C
6C
D8
D8
78
00
00
00
ENDCHAR
STARTCHAR char253
ENCODING 253
SWIDTH 497 0
DWIDTH 7 0
BBX 7 13 0 -3
BITMAP
00
0C
18
00
6C
6C
6C
D8
D8
78
30
30
E0
ENDCHAR
STARTCHAR char254
ENCODING 254
SWIDTH 497 0
DWIDTH 7 0
BBX 7 13 0 -3
BITMAP
00
00
30
30
3C
66
66
6C
CC
F8
C0
C0
00
ENDCHAR
STARTCHAR char255
ENCODING 255
SWIDTH 497 0
DWIDTH 7 0
BBX 7 13 0 -3
BITMAP
00
66
00
00
6C
6C
6C
D8
D8
78
30
30
E0
ENDCHAR
ENDFONT
